<svg width="826.75625px" height="178.41875px" xmlns="http://www.w3.org/2000/svg" viewBox="-163.378125 -14.209374999999994 826.75625 178.41875" style="background: rgb(28, 78, 172);" preserveAspectRatio="xMidYMid"><defs><filter id="editing-extrude-glow"><feFlood flood-color="#2f2b55" result="flood-1"></feFlood><feMorphology operator="erode" radius="1" in="SourceAlpha" result="erode"></feMorphology><feComposite operator="in" in="flood-1" in2="erode" result="comp1"></feComposite><feConvolveMatrix order="4,4" divisor="1" in="comp1" result="convolve" kernelMatrix="0 0 0 0 0 0 0 0 1 1 1 1 0 0 0 0"></feConvolveMatrix><feOffset dx="-4" dy="0" in="convolve" result="extrude"></feOffset><feComposite operator="in" in="flood-1" in2="extrude" result="comp-extrude"></feComposite><feFlood flood-color="#000000" result="flood-2"></feFlood><feComposite operator="in" in="flood-2" in2="SourceAlpha" result="comp2"></feComposite><feMorphology operator="dilate" radius="1" in="comp2" result="dilate"></feMorphology><feOffset dx="-6" dy="0" in="dilate" result="offset"></feOffset><feGaussianBlur in="offset" stdDeviation="5.8" result="blur"></feGaussianBlur><feComponentTransfer in="blur" result="shadow"><feFuncA type="linear" slope="0.8" intercept="-0.2"></feFuncA></feComponentTransfer><feMerge><feMergeNode in="shadow"></feMergeNode><feMergeNode in="comp-extrude"></feMergeNode><feMergeNode in="SourceGraphic"></feMergeNode></feMerge></filter></defs><g filter="url(#editing-extrude-glow)"><g transform="translate(-45.004687547683716, 121.83906173706055)"><path d="M10.20 0L-1.30 0L16.80-66L37.70-66L42.30-28.30L60.90-66L78.40-66L80.20-16.60L80.20-16.60Q80.60-6.80 85.40-3.80L85.40-3.80L85.40-3.80Q84.30-1.80 81.10 0.10L81.10 0.10L81.10 0.10Q77.90 2 73.65 2L73.65 2L73.65 2Q69.40 2 66.90 0.80L66.90 0.80L66.90 0.80Q64.40-0.40 63-2.40L63-2.40L63-2.40Q60.50-6 60.50-12.90L60.50-12.90L60.50-43.80L40.80 0L28.40 0L21.40-44.90L10.20 0ZM96.90 0L102.70-29.40L102.70-29.40Q99.80-56.50 89.60-62.30L89.60-62.30L89.60-62.30Q91.70-64.90 95.10-66.35L95.10-66.35L95.10-66.35Q98.50-67.80 102.60-67.80L102.60-67.80L102.60-67.80Q106.70-67.80 109.80-66.35L109.80-66.35L109.80-66.35Q112.90-64.90 114.90-61.80L114.90-61.80L114.90-61.80Q118.70-55.90 118.70-41.80L118.70-41.80L118.70-34.60L118.70-34.60Q124.70-52.20 130.70-59.80L130.70-59.80L130.70-59.80Q136.80-67.60 144.40-67.60L144.40-67.60L144.40-67.60Q147.40-67.60 149.40-66.05L149.40-66.05L149.40-66.05Q151.40-64.50 152.40-62.20L152.40-62.20L152.40-62.20Q144.70-58.80 137.30-49L137.30-49L137.30-49Q129.90-39.20 125.10-25.50L125.10-25.50L119.20 0L96.90 0ZM171-5.50L171-5.50L171-5.50Q167.90 2 158 2L158 2L158 2Q152.90 2 149.70-1.50L149.70-1.50L149.70-1.50Q147-4.60 147-7.70L147-7.70L147-7.70Q147-15.80 150.70-31.60L150.70-31.60L154.40-51L174.70-53L168.60-21.40L168.60-21.40Q166.90-14 166.90-11.40L166.90-11.40L166.90-11.40Q166.90-5.70 171-5.50ZM156.20-64.90L156.20-64.90L156.20-64.90Q156.20-68.80 159.45-70.90L159.45-70.90L159.45-70.90Q162.70-73 167.40-73L167.40-73L167.40-73Q172.10-73 174.95-70.90L174.95-70.90L174.95-70.90Q177.80-68.80 177.80-64.90L177.80-64.90L177.80-64.90Q177.80-61 174.65-59L174.65-59L174.65-59Q171.50-57 166.80-57L166.80-57L166.80-57Q162.10-57 159.15-59L159.15-59L159.15-59Q156.20-61 156.20-64.90ZM181.10-10L181.10-10L181.10-10Q181.10-12.70 182.50-19.50L182.50-19.50L187.80-46.50L181.90-46.50L182.30-49.50L182.30-49.50Q194.30-53.10 205.90-61.90L205.90-61.90L210.70-61.90L208.30-51L216.10-51L215.20-46.50L207.50-46.50L202.40-19.50L202.40-19.50Q201.10-13.30 201.10-11.20L201.10-11.20L201.10-11.20Q201.10-6.40 205.30-5.40L205.30-5.40L205.30-5.40Q204.30-2 200.70 0L200.70 0L200.70 0Q197.10 2 192 2L192 2L192 2Q186.90 2 184-1.20L184-1.20L184-1.20Q181.10-4.40 181.10-10ZM239.60-5.50L239.60-5.50L239.60-5.50Q236.50 2 226.60 2L226.60 2L226.60 2Q221.50 2 218.30-1.50L218.30-1.50L218.30-1.50Q215.60-4.60 215.60-7.70L215.60-7.70L215.60-7.70Q215.60-15.80 219.30-31.60L219.30-31.60L223-51L243.30-53L237.20-21.40L237.20-21.40Q235.50-14 235.50-11.40L235.50-11.40L235.50-11.40Q235.50-5.70 239.60-5.50ZM224.80-64.90L224.80-64.90L224.80-64.90Q224.80-68.80 228.05-70.90L228.05-70.90L228.05-70.90Q231.30-73 236-73L236-73L236-73Q240.70-73 243.55-70.90L243.55-70.90L243.55-70.90Q246.40-68.80 246.40-64.90L246.40-64.90L246.40-64.90Q246.40-61 243.25-59L243.25-59L243.25-59Q240.10-57 235.40-57L235.40-57L235.40-57Q230.70-57 227.75-59L227.75-59L227.75-59Q224.80-61 224.80-64.90ZM290.40 2L290.40 2L290.40 2Q278.30 2 278.30-7.40L278.30-7.40L278.30-7.40Q278.40-10 279.20-14.40L279.20-14.40L281-23.60L281-23.60Q283.70-36.60 283.70-39.50L283.70-39.50L283.70-39.50Q283.70-45.30 280.30-45.30L280.30-45.30L280.30-45.30Q274.60-45.30 271.60-30.40L271.60-30.40L265.70 0L245.60 2L256-51.10L272.40-53L270.80-43.20L270.80-43.20Q275.50-53 289.90-53L289.90-53L289.90-53Q296.90-53 299.85-50.05L299.85-50.05L299.85-50.05Q302.80-47.10 302.80-40.50L302.80-40.50L302.80-40.50Q302.80-34.30 299.60-19.80L299.60-19.80L299.60-19.80Q298.10-13.30 298.10-10.85L298.10-10.85L298.10-10.85Q298.10-8.40 299.45-7L299.45-7L299.45-7Q300.80-5.60 302.80-5.40L302.80-5.40L302.80-5.40Q301.80-2 298.35 0L298.35 0L298.35 0Q294.90 2 290.40 2ZM351.30-16.90L351.30-16.90L351.30-16.90Q353.80-15.20 353.80-11.45L353.80-11.45L353.80-11.45Q353.80-7.70 351.90-5.30L351.90-5.30L351.90-5.30Q350-2.90 346.90-1.30L346.90-1.30L346.90-1.30Q340.50 2 333.60 2L333.60 2L333.60 2Q326.70 2 322.65 0.50L322.65 0.50L322.65 0.50Q318.60-1 315.90-3.80L315.90-3.80L315.90-3.80Q310.60-9.10 310.60-18.80L310.60-18.80L310.60-18.80Q310.60-33.90 318.80-43.10L318.80-43.10L318.80-43.10Q327.60-53 342.90-53L342.90-53L342.90-53Q352.40-53 357.10-49L357.10-49L357.10-49Q360.60-46 360.60-41.10L360.60-41.10L360.60-41.10Q360.60-23.50 330.20-23.50L330.20-23.50L330.20-23.50Q329.80-20.90 329.80-18.70L329.80-18.70L329.80-18.70Q329.80-14.10 331.85-12.35L331.85-12.35L331.85-12.35Q333.90-10.60 337.70-10.60L337.70-10.60L337.70-10.60Q341.50-10.60 345.55-12.35L345.55-12.35L345.55-12.35Q349.60-14.10 351.30-16.90ZM330.90-27.80L330.90-27.80L330.90-27.80Q338-27.80 342.10-32.20L342.10-32.20L342.10-32.20Q346.20-36.40 346.20-43.10L346.20-43.10L346.20-43.10Q346.20-45.40 345.35-46.65L345.35-46.65L345.35-46.65Q344.50-47.90 342.80-47.90L342.80-47.90L342.80-47.90Q341.10-47.90 339.65-47.25L339.65-47.25L339.65-47.25Q338.20-46.60 336.70-44.40L336.70-44.40L336.70-44.40Q333-39.40 330.90-27.80ZM395.30-28.10L395.30-28.10L395.30-28.10Q398.90-34.50 398.90-41L398.90-41L398.90-41Q398.90-45.30 395.80-45.30L395.80-45.30L395.80-45.30Q393.40-45.30 390.90-41.20L390.90-41.20L390.90-41.20Q388.30-37.10 387.50-31.80L387.50-31.80L382.30 0L361.60 2L371.80-51L388.30-53L386.50-42.90L386.50-42.90Q391.40-53 402.40-53L402.40-53L402.40-53Q408.20-53 411.35-50L411.35-50L411.35-50Q414.50-47 414.50-40.85L414.50-40.85L414.50-40.85Q414.50-34.70 410.45-30.80L410.45-30.80L410.45-30.80Q406.40-26.90 399.50-26.90L399.50-26.90L399.50-26.90Q396.50-26.90 395.30-28.10ZM420.45-3L420.45-3L420.45-3Q418.10-5.60 417.05-9.70L417.05-9.70L417.05-9.70Q416.00-13.80 416.00-20.50L416.00-20.50L416.00-20.50Q416.00-27.20 418.30-33.30L418.30-33.30L418.30-33.30Q420.60-39.40 424.80-43.80L424.80-43.80L424.80-43.80Q433.40-53 447.60-53L447.60-53L447.60-53Q452.70-53 456.40-51.30L456.40-51.30L473.50-53L466.10-14L466.10-14Q465.80-12.80 465.80-10.60L465.80-10.60L465.80-10.60Q465.80-8.40 467.15-7L467.15-7L467.15-7Q468.50-5.60 470.50-5.40L470.50-5.40L470.50-5.40Q469.50-2 465.85 0L465.85 0L465.85 0Q462.20 2 458.10 2L458.10 2L458.10 2Q454.00 2 451.25 0.45L451.25 0.45L451.25 0.45Q448.50-1.10 447.70-3.70L447.70-3.70L447.70-3.70Q446.10-1.20 442.70 0.40L442.70 0.40L442.70 0.40Q439.30 2 434.75 2L434.75 2L434.75 2Q430.20 2 426.50 0.80L426.50 0.80L426.50 0.80Q422.80-0.40 420.45-3ZM441.55-43.60L441.55-43.60L441.55-43.60Q440.40-41.80 439.40-38.75L439.40-38.75L439.40-38.75Q438.40-35.70 436.75-27.55L436.75-27.55L436.75-27.55Q435.10-19.40 435.10-13.60L435.10-13.60L435.10-13.60Q435.10-7.80 436.00-6.10L436.00-6.10L436.00-6.10Q436.90-4.40 438.50-4.40L438.50-4.40L438.50-4.40Q441.70-4.40 444.05-7.45L444.05-7.45L444.05-7.45Q446.40-10.50 447.30-15.90L447.30-15.90L452.60-45.20L452.60-45.20Q450.50-47 448.05-47L448.05-47L448.05-47Q445.60-47 444.15-46.20L444.15-46.20L444.15-46.20Q442.70-45.40 441.55-43.60ZM510.20-28.10L510.20-28.10L510.20-28.10Q513.80-34.50 513.80-41L513.80-41L513.80-41Q513.80-45.30 510.70-45.30L510.70-45.30L510.70-45.30Q508.30-45.30 505.80-41.20L505.80-41.20L505.80-41.20Q503.20-37.10 502.40-31.80L502.40-31.80L497.20 0L476.50 2L486.70-51L503.20-53L501.40-42.90L501.40-42.90Q506.30-53 517.30-53L517.30-53L517.30-53Q523.10-53 526.25-50L526.25-50L526.25-50Q529.40-47 529.40-40.85L529.40-40.85L529.40-40.85Q529.40-34.70 525.35-30.80L525.35-30.80L525.35-30.80Q521.30-26.90 514.40-26.90L514.40-26.90L514.40-26.90Q511.40-26.90 510.20-28.10ZM562.80-11.30L562.80-11.30L562.80-11.30Q557.60-5.90 548.10-5.90L548.10-5.90L548.10-5.90Q536.20-5.90 533.70-14.60L533.70-14.60L533.70-14.60Q532.90-17.20 532.90-20.10L532.90-20.10L532.90-20.10Q532.90-23 533.50-26L533.50-26L538.20-51L558.50-53L553.00-23.90L553.00-23.90Q552.80-22.60 552.50-21.20L552.50-21.20L552.50-21.20Q552.20-19.80 552.20-18.35L552.20-18.35L552.20-18.35Q552.20-16.90 552.70-15.95L552.70-15.95L552.70-15.95Q553.20-15 553.90-14.40L553.90-14.40L553.90-14.40Q555.10-13.60 557.25-13.60L557.25-13.60L557.25-13.60Q559.40-13.60 561.25-16.20L561.25-16.20L561.25-16.20Q563.10-18.80 564.00-23.30L564.00-23.30L569.50-51L589.20-53L581.70-13.70L581.70-13.70Q578.00 5.50 570.40 13.10L570.40 13.10L570.40 13.10Q566.50 17 561.45 18.55L561.45 18.55L561.45 18.55Q556.40 20.10 549.90 20.10L549.90 20.10L549.90 20.10Q539.40 20.10 533.40 16.80L533.40 16.80L533.40 16.80Q527.40 13.50 527.40 8L527.40 8L527.40 8Q527.40 3.90 530.50 1.55L530.50 1.55L530.50 1.55Q533.60-0.80 538.40-0.80L538.40-0.80L538.40-0.80Q542.60-0.80 545.80 1L545.80 1L545.80 1Q547.70 2.10 548.60 3.50L548.60 3.50L548.60 3.50Q546.30 5.50 546.30 8.80L546.30 8.80L546.30 8.80Q546.30 13.20 550.30 13.20L550.30 13.20L550.30 13.20Q556.90 13.20 560.70-2L560.70-2L560.70-2Q561.80-6.50 562.80-11.30Z" fill="#ffffff"></path></g></g><style>text {
  font-size: 64px;
  font-family: Arial Black;
  dominant-baseline: central;
  text-anchor: middle;
}</style></svg>