<svg width="647.597509765625px" height="198.58485107421873px" xmlns="http://www.w3.org/2000/svg" viewBox="-73.79875488281249 -24.292425537109366 647.597509765625 198.58485107421873" style="background: rgba(0, 0, 0, 0);" preserveAspectRatio="xMidYMid"><defs><linearGradient id="editing-gradient-gradient" x1="0" x2="1" y1="0.5" y2="0.5" gradientUnits="objectBoundingBox"><stop offset="0" stop-color="#6100ff"></stop><stop offset="1" stop-color="#00f4ff"></stop></linearGradient></defs><g><g transform="translate(16.040618896484375, 119.4749984741211)"><path d="M41.10-8.40L66.10-68.20L74.50-68.20L74.50 0L67.10 0L67.10-54.50L44.30 0L37.30 0L15.50-54.30L15.50 0L8 0L8-68.20L17.20-68.20L41.10-8.40ZM107.10-34.20L125.50-68.20L132.40-68.20L110.30-27.90L110.30 0L102.90 0L102.90-28.20L81-68.20L88.50-68.20L107.10-34.20ZM146.50 0L139.70 0L139.70-40.60L131.70-40.60L131.70-46.80L139.70-46.80L139.70-62.30L146.50-62.30L146.50-46.80L157.30-46.80L157.30-40.60L146.50-40.60L146.50 0ZM175.20 0L168.40 0L168.40-46.80L175.20-46.80L175.20 0ZM171.80-55.90L171.80-55.90Q169.50-55.90 167.95-57.50L167.95-57.50L167.95-57.50Q166.40-59.10 166.40-61.40L166.40-61.40L166.40-61.40Q166.40-63.60 167.95-65.15L167.95-65.15L167.95-65.15Q169.50-66.70 171.80-66.70L171.80-66.70L171.80-66.70Q174-66.70 175.60-65.15L175.60-65.15L175.60-65.15Q177.20-63.60 177.20-61.30L177.20-61.30L177.20-61.30Q177.20-59.10 175.60-57.50L175.60-57.50L175.60-57.50Q174-55.90 171.80-55.90L171.80-55.90ZM213.80-48.40L213.80-48.40Q218.70-48.40 222.85-46.40L222.85-46.40L222.85-46.40Q227.00-44.40 229.45-40.50L229.45-40.50L229.45-40.50Q231.90-36.60 231.90-31.30L231.90-31.30L231.90 0L225.10 0L225.10-28.30L225.10-28.30Q225.10-42.20 212.70-42.20L212.70-42.20L212.70-42.20Q205.50-42.20 201.90-37.10L201.90-37.10L201.90-37.10Q198.30-32 198.30-23.40L198.30-23.40L198.30 0L191.50 0L191.50-46.80L198.30-46.80L198.30-39L198.30-39Q200.70-43.50 204.65-45.95L204.65-45.95L204.65-45.95Q208.60-48.40 213.80-48.40L213.80-48.40ZM265.40-48.40L265.40-48.40Q271.70-48.40 276.80-45.30L276.80-45.30L276.80-45.30Q281.90-42.20 284.80-36.85L284.80-36.85L284.80-36.85Q287.70-31.50 287.70-24.90L287.70-24.90L287.70-24.90Q287.70-23 287.60-22L287.60-22L249.10-22L249.10-22Q249.50-14.80 253.80-9.70L253.80-9.70L253.80-9.70Q258.10-4.60 265.50-4.60L265.50-4.60L265.50-4.60Q271.50-4.60 275.45-6.85L275.45-6.85L275.45-6.85Q279.40-9.10 281.80-13.10L281.80-13.10L287.20-9.50L287.20-9.50Q283.90-4.30 278.50-1.35L278.50-1.35L278.50-1.35Q273.10 1.60 265.70 1.60L265.70 1.60L265.70 1.60Q258.90 1.60 253.60-1.60L253.60-1.60L253.60-1.60Q248.30-4.80 245.30-10.50L245.30-10.50L245.30-10.50Q242.30-16.20 242.30-23.40L242.30-23.40L242.30-23.40Q242.30-30.60 245.25-36.30L245.25-36.30L245.25-36.30Q248.20-42 253.45-45.20L253.45-45.20L253.45-45.20Q258.70-48.40 265.40-48.40L265.40-48.40ZM249.50-27.60L280.90-27.60L280.90-27.60Q279.90-34.90 276.00-38.55L276.00-38.55L276.00-38.55Q272.10-42.20 265.40-42.20L265.40-42.20L265.40-42.20Q258.90-42.20 254.75-38.05L254.75-38.05L254.75-38.05Q250.60-33.90 249.50-27.60L249.50-27.60ZM320.70-48.40L320.70-48.40Q323.10-48.40 325.30-47.70L325.30-47.70L325.30-41.50L325.30-41.50Q323.20-42.50 320.70-42.50L320.70-42.50L320.70-42.50Q316.40-42.50 312.70-40.10L312.70-40.10L312.70-40.10Q309.00-37.70 306.75-33.15L306.75-33.15L306.75-33.15Q304.50-28.60 304.50-22.40L304.50-22.40L304.50 0L297.70 0L297.70-46.80L304.50-46.80L304.50-37.40L304.50-37.40Q307.20-42.60 311.35-45.50L311.35-45.50L311.35-45.50Q315.50-48.40 320.70-48.40L320.70-48.40ZM368.30-46.80L375.10-46.80L375.10 0L368.30 0L368.30-6.90L368.30-6.90Q365.40-2.90 361.20-0.65L361.20-0.65L361.20-0.65Q357 1.60 352 1.60L352 1.60L352 1.60Q345.30 1.60 340-1.60L340-1.60L340-1.60Q334.70-4.80 331.70-10.50L331.70-10.50L331.70-10.50Q328.70-16.20 328.70-23.50L328.70-23.50L328.70-23.50Q328.70-30.70 331.65-36.35L331.65-36.35L331.65-36.35Q334.60-42 339.85-45.20L339.85-45.20L339.85-45.20Q345.10-48.40 351.80-48.40L351.80-48.40L351.80-48.40Q356.90-48.40 361.15-46.15L361.15-46.15L361.15-46.15Q365.40-43.90 368.30-39.80L368.30-39.80L368.30-46.80ZM351.80-4.60L351.80-4.60Q356.60-4.60 360.35-7L360.35-7L360.35-7Q364.10-9.40 366.20-13.70L366.20-13.70L366.20-13.70Q368.30-18 368.30-23.40L368.30-23.40L368.30-23.40Q368.30-28.80 366.20-33.10L366.20-33.10L366.20-33.10Q364.10-37.40 360.35-39.80L360.35-39.80L360.35-39.80Q356.60-42.20 351.80-42.20L351.80-42.20L351.80-42.20Q347.10-42.20 343.40-39.80L343.40-39.80L343.40-39.80Q339.70-37.40 337.60-33.15L337.60-33.15L337.60-33.15Q335.50-28.90 335.50-23.50L335.50-23.50L335.50-23.50Q335.50-18 337.60-13.70L337.60-13.70L337.60-13.70Q339.70-9.40 343.40-7L343.40-7L343.40-7Q347.10-4.60 351.80-4.60L351.80-4.60ZM410.70-48.40L410.70-48.40Q413.10-48.40 415.30-47.70L415.30-47.70L415.30-41.50L415.30-41.50Q413.20-42.50 410.70-42.50L410.70-42.50L410.70-42.50Q406.40-42.50 402.70-40.10L402.70-40.10L402.70-40.10Q399.00-37.70 396.75-33.15L396.75-33.15L396.75-33.15Q394.50-28.60 394.50-22.40L394.50-22.40L394.50 0L387.70 0L387.70-46.80L394.50-46.80L394.50-37.40L394.50-37.40Q397.20-42.60 401.35-45.50L401.35-45.50L401.35-45.50Q405.50-48.40 410.70-48.40L410.70-48.40ZM438.90-8L453.80-46.80L460.20-46.80L434.90 20L428.10 20L435.50 0.90L416.30-46.80L423.40-46.80L438.90-8Z" fill="url(#editing-gradient-gradient)"></path></g></g><style>text {
  font-size: 64px;
  font-family: Arial Black;
  dominant-baseline: central;
  text-anchor: middle;
}</style></svg>