<svg width="701.4875px" height="189.95750732421874px" xmlns="http://www.w3.org/2000/svg" viewBox="-100.74374999999998 -19.97875366210937 701.4875 189.95750732421874" style="background: rgba(0, 0, 0, 0);" preserveAspectRatio="xMidYMid"><defs><filter id="editing-hole" x="-100%" y="-100%" width="300%" height="300%"><feFlood flood-color="#ffffff" result="black"></feFlood><feMorphology operator="dilate" radius="2" in="SourceGraphic" result="erode"></feMorphology><feGaussianBlur in="erode" stdDeviation="4" result="blur"></feGaussianBlur><feOffset in="blur" dx="2" dy="2" result="offset"></feOffset><feComposite operator="atop" in="offset" in2="black" result="merge"></feComposite><feComposite operator="in" in="merge" in2="SourceGraphic" result="inner-shadow"></feComposite></filter></defs><g filter="url(#editing-hole)"><g transform="translate(-5.250012397766113, 122.3843765258789)"><path d="M69.30-71.20L76.10-71.20L76.10 0L68.50 0L68.50-52.90L45.40 0L39.60 0L16.30-52.50L16.40 0L8.80 0L8.80-71.20L15.60-71.20L42.60-9.80L69.30-71.20ZM147.30-71.20L119.30-28.80L119.30 0L111.10 0L111.10-28.90L83.10-71.20L92.70-71.20L115.30-36.20L137.90-71.20L147.30-71.20ZM178.60-43.90L164.20-43.90L164.20-16.40L164.20-16.40Q164.20-10.80 166.50-8.55L166.50-8.55L166.50-8.55Q168.80-6.30 173.00-6.30L173.00-6.30L173.00-6.30Q175.80-6.30 178.40-7.20L178.40-7.20L178.40-0.30L178.40-0.30Q175.30 0.70 171.40 0.70L171.40 0.70L171.40 0.70Q164.20 0.70 160.15-3.35L160.15-3.35L160.15-3.35Q156.10-7.40 156.10-15.30L156.10-15.30L156.10-43.90L146.30-43.90L146.30-50.30L156.10-50.30L156.10-63.20L164.20-66.10L164.20-50.30L178.60-50.30L178.60-43.90ZM188.40 0L188.40-50.30L196.50-50.30L196.50 0L188.40 0ZM187.60-71.60L197.50-71.60L197.50-62.40L187.60-62.40L187.60-71.60ZM237.30-51.50L237.30-51.50Q255.40-51.50 255.40-31.60L255.40-31.60L255.40 0L247.30 0L247.30-31.20L247.30-31.20Q247.30-38.20 244.50-41.45L244.50-41.45L244.50-41.45Q241.70-44.70 235.70-44.70L235.70-44.70L235.70-44.70Q228.70-44.70 224.50-40.40L224.50-40.40L224.50-40.40Q220.30-36.10 220.30-28.80L220.30-28.80L220.30 0L212.20 0L212.20-36.20L212.20-36.20Q212.20-44 211.40-50.30L211.40-50.30L219.10-50.30L219.90-41.30L219.90-41.30Q222.20-46.20 226.80-48.85L226.80-48.85L226.80-48.85Q231.40-51.50 237.30-51.50L237.30-51.50ZM312.80-26.90L312.80-25.40L275.90-25.40L275.90-25.40Q276.00-15.80 280.35-10.90L280.35-10.90L280.35-10.90Q284.70-6 293.00-6L293.00-6L293.00-6Q301.80-6 309.20-11.90L309.20-11.90L311.90-6L311.90-6Q308.60-2.90 303.45-1.10L303.45-1.10L303.45-1.10Q298.30 0.70 292.90 0.70L292.90 0.70L292.90 0.70Q281.10 0.70 274.40-6.25L274.40-6.25L274.40-6.25Q267.70-13.20 267.70-25.30L267.70-25.30L267.70-25.30Q267.70-33 270.70-38.95L270.70-38.95L270.70-38.95Q273.70-44.90 279.10-48.20L279.10-48.20L279.10-48.20Q284.50-51.50 291.40-51.50L291.40-51.50L291.40-51.50Q301.40-51.50 307.10-44.95L307.10-44.95L307.10-44.95Q312.80-38.40 312.80-26.90L312.80-26.90ZM291.50-45.20L291.50-45.20Q285.20-45.20 281.25-41.40L281.25-41.40L281.25-41.40Q277.30-37.60 276.20-30.70L276.20-30.70L305.50-30.70L305.50-30.70Q304.90-37.80 301.35-41.50L301.35-41.50L301.35-41.50Q297.80-45.20 291.50-45.20L291.50-45.20ZM348.50-51.50L348.50-51.50Q351.00-51.50 353.10-50.90L353.10-50.90L352.90-43.50L352.90-43.50Q350.60-44.30 347.60-44.30L347.60-44.30L347.60-44.30Q340.30-44.30 336.75-39.75L336.75-39.75L336.75-39.75Q333.20-35.20 333.20-28.70L333.20-28.70L333.20 0L325.10 0L325.10-36.20L325.10-36.20Q325.10-44 324.30-50.30L324.30-50.30L332.00-50.30L332.80-41L332.80-41Q334.70-46.10 338.90-48.80L338.90-48.80L338.90-48.80Q343.10-51.50 348.50-51.50L348.50-51.50ZM397.60-50.30L405.60-50.30L405.60 0L397.60 0L397.60-9.10L397.60-9.10Q395.40-4.40 390.95-1.85L390.95-1.85L390.95-1.85Q386.50 0.70 380.60 0.70L380.60 0.70L380.60 0.70Q373.90 0.70 368.85-2.50L368.85-2.50L368.85-2.50Q363.80-5.70 361.05-11.55L361.05-11.55L361.05-11.55Q358.30-17.40 358.30-25.20L358.30-25.20L358.30-25.20Q358.30-33 361.10-38.95L361.10-38.95L361.10-38.95Q363.90-44.90 368.95-48.20L368.95-48.20L368.95-48.20Q374.00-51.50 380.60-51.50L380.60-51.50L380.60-51.50Q386.50-51.50 390.90-48.90L390.90-48.90L390.90-48.90Q395.30-46.30 397.60-41.60L397.60-41.60L397.60-50.30ZM382.20-6L382.20-6Q389.60-6 393.60-11.05L393.60-11.05L393.60-11.05Q397.60-16.10 397.60-25.40L397.60-25.40L397.60-25.40Q397.60-34.70 393.60-39.70L393.60-39.70L393.60-39.70Q389.60-44.70 382.20-44.70L382.20-44.70L382.20-44.70Q374.80-44.70 370.65-39.55L370.65-39.55L370.65-39.55Q366.50-34.40 366.50-25.20L366.50-25.20L366.50-25.20Q366.50-16 370.60-11L370.60-11L370.60-11Q374.70-6 382.20-6L382.20-6ZM444.70-51.50L444.70-51.50Q447.20-51.50 449.30-50.90L449.30-50.90L449.10-43.50L449.10-43.50Q446.80-44.30 443.80-44.30L443.80-44.30L443.80-44.30Q436.50-44.30 432.95-39.75L432.95-39.75L432.95-39.75Q429.40-35.20 429.40-28.70L429.40-28.70L429.40 0L421.30 0L421.30-36.20L421.30-36.20Q421.30-44 420.50-50.30L420.50-50.30L428.20-50.30L429.00-41L429.00-41Q430.90-46.10 435.10-48.80L435.10-48.80L435.10-48.80Q439.30-51.50 444.70-51.50L444.70-51.50ZM493.60-50.30L501.70-50.30L478.20 4.60L478.20 4.60Q474.50 13.20 468.90 17.20L468.90 17.20L468.90 17.20Q463.30 21.20 455.10 22.70L455.10 22.70L453.40 16.40L453.40 16.40Q460.50 14.80 464.15 12.15L464.15 12.15L464.15 12.15Q467.80 9.50 470.20 4L470.20 4L472.20-0.50L450.90-50.30L459.40-50.30L476.40-8.80L493.60-50.30Z" fill="#ffffff"></path></g></g><style>text {
  font-size: 64px;
  font-family: Arial Black;
  dominant-baseline: central;
  text-anchor: middle;
}</style></svg>